<?xml version="1.0" encoding="UTF-8"?>
<svg width="270px" height="270px" viewBox="0 0 270 270" version="1.1" xmlns="http://www.w3.org/2000/svg" xmlns:xlink="http://www.w3.org/1999/xlink">
    <!-- Generator: Sketch 53.2 (72643) - https://sketchapp.com -->
    <title>statics</title>
    <desc>Created with Sketch.</desc>
    <g id="Page-1" stroke="none" stroke-width="1" fill="none" fill-rule="evenodd">
        <g id="statics">
            <circle id="label" fill="#D62F27" fill-rule="nonzero" cx="135" cy="135" r="135"></circle>
            <path d="M153.81,81 L142.08,81 L142.08,128.46 L153.81,128.46 L153.81,81 L153.81,81 Z M171,94.71 L159.36,94.71 L159.36,128.46 L171,128.46 L171,94.71 Z M188.28,108.39 L176.67,108.39 L176.67,128.49 L188.4,128.49 L188.4,108.39 L188.28,108.39 Z M135,135 L189,135 C189,164.823376 164.823376,189 135,189 C105.176624,189 81,164.823376 81,135 C81,105.176624 105.176624,81 135,81 L135,135 Z" id="icon" fill="#FFFFFF"></path>
        </g>
    </g>
</svg>