<?xml version="1.0" encoding="UTF-8"?>
<svg width="117px" height="117px" viewBox="0 0 117 117" version="1.1" xmlns="http://www.w3.org/2000/svg" xmlns:xlink="http://www.w3.org/1999/xlink">
    <!-- Generator: Sketch 53.2 (72643) - https://sketchapp.com -->
    <title>icon</title>
    <desc>Created with Sketch.</desc>
    <g id="Page-1" stroke="none" stroke-width="1" fill="none" fill-rule="evenodd">
        <g id="icon" fill-rule="nonzero">
            <circle id="label" fill="#D62F27" cx="58.5" cy="58.5" r="58.5"></circle>
            <path d="M66.6858333,35 L61.5811111,35 L61.5811111,55.6538889 L66.6858333,55.6538889 L66.6858333,35 L66.6858333,35 Z M74.1666667,40.9663889 L69.1011111,40.9663889 L69.1011111,55.6538889 L74.1666667,55.6538889 L74.1666667,40.9663889 Z M81.6866667,46.9197222 L76.6341667,46.9197222 L76.6341667,55.6669444 L81.7388889,55.6669444 L81.7388889,46.9197222 L81.6866667,46.9197222 Z M58.5,58.5 L82,58.5 C82,71.4786914 71.4786914,82 58.5,82 C45.5213086,82 35,71.4786914 35,58.5 C35,45.5213086 45.5213086,35 58.5,35 L58.5,58.5 Z" fill="#FFFFFF"></path>
        </g>
    </g>
</svg>