<?xml version="1.0" encoding="UTF-8"?>
<svg width="115px" height="115px" viewBox="0 0 115 115" version="1.1" xmlns="http://www.w3.org/2000/svg" xmlns:xlink="http://www.w3.org/1999/xlink">
    <!-- Generator: Sketch 53.2 (72643) - https://sketchapp.com -->
    <title>icon-mask</title>
    <desc>Created with Sketch.</desc>
    <g id="Page-1" stroke="none" stroke-width="1" fill="none" fill-rule="evenodd">
        <g id="icon-mask" fill-rule="nonzero">
            <circle id="label" fill="#000000" cx="57.5" cy="57.5" r="57.5"></circle>
            <path d="M65.0116667,35 L60.0155556,35 L60.0155556,55.2144444 L65.0116667,55.2144444 L65.0116667,35 L65.0116667,35 Z M72.3333333,40.8394444 L67.3755556,40.8394444 L67.3755556,55.2144444 L72.3333333,55.2144444 L72.3333333,40.8394444 Z M79.6933333,46.6661111 L74.7483333,46.6661111 L74.7483333,55.2272222 L79.7444444,55.2272222 L79.7444444,46.6661111 L79.6933333,46.6661111 Z M57,58 L80,58 C80,70.702549 69.702549,81 57,81 C44.297451,81 34,70.702549 34,58 C34,45.297451 44.297451,35 57,35 L57,58 Z" id="icon" fill="#FFFFFF"></path>
        </g>
    </g>
</svg>